<svg width="13" height="13" viewBox="0 0 13 13" fill="none" xmlns="http://www.w3.org/2000/svg">
<g clip-path="url(#clip0_95_5681)">
<path d="M7.38277 12.8503H5.35432C5.0155 12.8503 4.73989 12.5746 4.73989 12.2358V7.66055H3.55645C3.21763 7.66055 2.94202 7.38484 2.94202 7.04612V5.08561C2.94202 4.74679 3.21763 4.47118 3.55645 4.47118H4.73989V3.48942C4.73989 2.51598 5.04556 1.68778 5.62375 1.09451C6.20455 0.49854 7.01622 0.183594 7.97101 0.183594L9.51801 0.186106C9.85625 0.186686 10.1314 0.462301 10.1314 0.800537V2.62083C10.1314 2.95965 9.85586 3.23526 9.51714 3.23526L8.47557 3.23565C8.15791 3.23565 8.07703 3.29933 8.05973 3.31885C8.03122 3.35123 7.9973 3.44274 7.9973 3.69546V4.47108H9.43886C9.54739 4.47108 9.65253 4.49785 9.74289 4.54829C9.93781 4.65721 10.059 4.86314 10.059 5.0857L10.0582 7.04622C10.0582 7.38484 9.78261 7.66046 9.44379 7.66046H7.9973V12.2358C7.9973 12.5746 7.72159 12.8503 7.38277 12.8503ZM5.48246 12.1077H7.25463V7.32812C7.25463 7.10188 7.43873 6.91788 7.66486 6.91788H9.31565L9.31633 5.21375H7.66476C7.43863 5.21375 7.25463 5.02975 7.25463 4.80352V3.69546C7.25463 3.40534 7.2841 3.07542 7.50309 2.82744C7.76769 2.52767 8.18468 2.49307 8.47537 2.49307L9.3888 2.49269V0.928487L7.97043 0.926168C6.436 0.926168 5.48246 1.90841 5.48246 3.48942V4.80352C5.48246 5.02965 5.29846 5.21375 5.07233 5.21375H3.68459V6.91788H5.07233C5.29846 6.91788 5.48246 7.10188 5.48246 7.32812V12.1077ZM9.51656 0.92868H9.51666H9.51656Z" fill="white"/>
</g>
<defs>
<clipPath id="clip0_95_5681">
<rect width="12.6419" height="12.6667" fill="white" transform="translate(0.208298 0.208374)"/>
</clipPath>
</defs>
</svg>
