<svg width="33" height="31" viewBox="0 0 33 31" fill="none" xmlns="http://www.w3.org/2000/svg">
<path d="M10.6322 20.3342H10.6338C10.635 20.3342 10.6363 20.334 10.6375 20.334H28.166C28.5975 20.334 28.977 20.0477 29.0956 19.6328L32.9627 6.09765C33.0461 5.80585 32.9877 5.49214 32.8051 5.24994C32.6223 5.00774 32.3366 4.86523 32.0332 4.86523H8.40257L7.71146 1.75512C7.61302 1.31276 7.22076 0.998047 6.76758 0.998047H0.966797C0.432793 0.998047 0 1.43084 0 1.96484C0 2.49885 0.432793 2.93164 0.966797 2.93164H5.99213C6.11449 3.48277 9.29938 17.815 9.48267 18.6396C8.45519 19.0862 7.73438 20.1107 7.73438 21.3008C7.73438 22.9 9.03552 24.2012 10.6348 24.2012H28.166C28.7 24.2012 29.1328 23.7684 29.1328 23.2344C29.1328 22.7004 28.7 22.2676 28.166 22.2676H10.6348C10.1018 22.2676 9.66797 21.8338 9.66797 21.3008C9.66797 20.7685 10.1003 20.3355 10.6322 20.3342ZM30.7514 6.79883L27.4366 18.4004H11.4102L8.83209 6.79883H30.7514Z" fill="#956D84"/>
<path d="M9.66797 27.1016C9.66797 28.7008 10.9691 30.002 12.5684 30.002C14.1676 30.002 15.4688 28.7008 15.4688 27.1016C15.4688 25.5023 14.1676 24.2012 12.5684 24.2012C10.9691 24.2012 9.66797 25.5023 9.66797 27.1016ZM12.5684 26.1348C13.1014 26.1348 13.5352 26.5686 13.5352 27.1016C13.5352 27.6346 13.1014 28.0684 12.5684 28.0684C12.0354 28.0684 11.6016 27.6346 11.6016 27.1016C11.6016 26.5686 12.0354 26.1348 12.5684 26.1348Z" fill="#956D84"/>
<path d="M23.332 27.1016C23.332 28.7008 24.6332 30.002 26.2324 30.002C27.8317 30.002 29.1328 28.7008 29.1328 27.1016C29.1328 25.5023 27.8317 24.2012 26.2324 24.2012C24.6332 24.2012 23.332 25.5023 23.332 27.1016ZM26.2324 26.1348C26.7654 26.1348 27.1992 26.5686 27.1992 27.1016C27.1992 27.6346 26.7654 28.0684 26.2324 28.0684C25.6994 28.0684 25.2656 27.6346 25.2656 27.1016C25.2656 26.5686 25.6994 26.1348 26.2324 26.1348Z" fill="#956D84"/>
</svg>
